Coordinates
version=1
nRows=10
nColumns=33
inDegrees=yes

Units are S.I. units (second, meters, Newtons, ...)
Angles are in degrees.

endheader
time	ground_thorax_rot_x	ground_thorax_rot_y	ground_thorax_rot_z	ground_thorax_tx	ground_thorax_ty	ground_thorax_tz	clav_prot_r	clav_elev_r	scapula_abduction_r	scapula_elevation_r	scapula_upward_rot_r	scapula_winging_r	shoulder_elv_r	plane_of_elev_r	axial_rot_r	elbow_flexion_r	pro_sup_r	wrist_flex_r	wrist_dev_r	clav_prot_l	clav_elev_l	scapula_abduction_l	scapula_elevation_l	scapula_upward_rot_l	scapula_winging_l	shoulder_elv_l	plane_of_elev_l	axial_rot_l	elbow_flexion_l	pro_sup_l	wrist_flex_l	wrist_dev_l
      0.99000000	      1.18600718	     -1.08231935	    -12.96277232	     -0.03863651	      1.04710492	     -0.00150085	    -11.13427402	     -6.47527011	     -7.05671250	     -2.28664583	     11.96809323	     -1.67279692	     60.85415022	    -34.17153483	     55.40599603	     86.52494921	    -12.15460581	     14.27923384	      5.88632635	     -3.44996214	     -5.81271819	     -1.48347814	     -2.01911381	     -1.53942555	      0.55270989	     61.54457988	    -43.69014865	    -38.65725251	     83.03281040	    -21.96034173	      0.10102342	    -17.91041837
      1.00000000	      1.17810243	     -1.05195514	    -12.88951717	     -0.03878051	      1.04708042	     -0.00164342	    -10.97552777	     -6.67105056	     -6.89150489	     -2.36889348	     11.69719802	     -1.56777583	     60.02511367	    -33.05395491	     53.96631221	     85.64992453	    -13.99129695	     13.36011021	      5.66930534	     -3.29234074	     -6.08811379	     -1.75587750	     -1.82338654	     -1.67224455	      0.52139965	     61.16017719	    -42.37477240	    -37.71774897	     82.38394839	    -23.08998631	     -0.04495364	    -16.90157711
      1.01000000	      1.17636634	     -1.01708595	    -12.82331540	     -0.03894773	      1.04705009	     -0.00179553	    -10.81418277	     -6.89816105	     -6.73754165	     -2.46585338	     11.38562411	     -1.44331298	     59.19527202	    -31.86125585	     52.50878093	     84.61195797	    -15.75877955	     12.41735354	      5.49249937	     -3.13191110	     -6.36691114	     -2.02562440	     -1.63090460	     -1.82228308	      0.48538015	     60.75723130	    -40.99717717	    -36.75283417	     81.57150836	    -24.17650855	     -0.13910095	    -15.89074766
      1.02000000	      1.17337469	     -0.97778951	    -12.80304741	     -0.03913387	      1.04706103	     -0.00193120	    -10.64117444	     -7.19049601	     -6.56436493	     -2.61202680	     11.05194410	     -1.29031681	     58.39381122	    -30.61692715	     51.04764217	     83.43278804	    -17.31005874	     11.48906606	      5.34531203	     -2.96911268	     -6.68034702	     -2.30742630	     -1.40320277	     -1.95895062	      0.43942557	     60.39009690	    -39.60295018	    -35.80088931	     80.61052889	    -25.18992340	     -0.16513584	    -14.91509096
      1.03000000	      1.16531759	     -0.95060172	    -12.70732061	     -0.03928626	      1.04699279	     -0.00217625	    -10.48194176	     -7.46243824	     -6.44661079	     -2.72533322	     10.66245597	     -1.13177144	     57.57651913	    -29.33438958	     49.52558201	     82.08478881	    -18.77490664	     10.48422230	      5.25980590	     -2.80745598	     -6.96128381	     -2.55647057	     -1.22777110	     -2.16244750	      0.39265411	     59.97280240	    -38.16941057	    -34.81496224	     79.50603877	    -26.27538843	     -0.08783543	    -13.85188165
      1.04000000	      1.16215190	     -0.91977497	    -12.64259228	     -0.03948227	      1.04695158	     -0.00232710	    -10.31103510	     -7.78626699	     -6.30706302	     -2.87834161	     10.25879095	     -0.95048003	     56.77830197	    -28.01535301	     48.00536421	     80.60048781	    -20.04089902	      9.46729350	      5.24030269	     -2.63709359	     -7.25913003	     -2.82134910	     -1.03834120	     -2.36724420	      0.34107631	     59.59147373	    -36.72764474	    -33.82438421	     78.27375450	    -27.40847420	      0.08823474	    -12.75346832
      1.05000000	      1.16595171	     -0.88615686	    -12.58732576	     -0.03967277	      1.04688544	     -0.00251240	    -10.13875775	     -8.12192616	     -6.17243577	     -3.03697611	      9.83944314	     -0.76022688	     55.99710741	    -26.65769679	     46.44876235	     78.98190653	    -21.14668322	      8.39690566	      5.30843428	     -2.46026572	     -7.55692634	     -3.08551256	     -0.85800953	     -2.59698507	      0.28527107	     59.20825063	    -35.24771379	    -32.79609620	     76.93465553	    -28.64893950	      0.37656940	    -11.56667595
      1.06000000	      1.17698836	     -0.84966604	    -12.53633922	     -0.03987456	      1.04680964	     -0.00267388	     -9.96682320	     -8.47433922	     -6.03803844	     -3.20845686	      9.41406430	     -0.56234541	     55.23544664	    -25.27800407	     44.86554309	     77.23044433	    -22.08030186	      7.28172728	      5.47310942	     -2.27511093	     -7.86726291	     -3.35689100	     -0.67456568	     -2.84851564	      0.22422235	     58.82972045	    -33.75216022	    -31.73675118	     75.48920742	    -29.98323311	      0.76669602	    -10.28956746
      1.07000000	      1.19472014	     -0.81381957	    -12.48707680	     -0.04006743	      1.04674264	     -0.00281873	     -9.79637399	     -8.85229832	     -5.90276161	     -3.40236880	      8.98786363	     -0.35215604	     54.49453084	    -23.89450932	     43.26583114	     75.34342613	    -22.83287766	      6.13611281	      5.73310821	     -2.08975449	     -8.18789824	     -3.62595822	     -0.48458508	     -3.10727820	      0.15755692	     58.44645297	    -32.24320488	    -30.64377209	     73.94986511	    -31.34665148	      1.22923333	     -8.93691352
      1.08000000	      1.26128253	     -0.77670951	    -12.64830813	     -0.03981894	      1.04716870	     -0.00296028	     -9.66742664	     -9.61981838	     -5.69016124	     -4.00425157	      8.73995888	      0.00185761	     53.98048387	    -22.89826967	     41.82712418	     73.42912418	    -23.09427225	      5.45550553	      5.61111558	     -1.99977591	     -8.91356066	     -3.85125915	      0.15031661	     -3.14903219	     -0.06024734	     58.15820687	    -31.11207137	    -29.66993622	     72.37608013	    -31.90922989	      1.23557868	     -8.23184274
